HIERARCHY
ROOT Hips
{
  OFFSET 0 0 0
  CHANNELS 6 Xposition Yposition Zposition Zrotation Yrotation Xrotation
  JOINT LeftThigh
  {
    OFFSET 8.409438 0 -5.917753
    CHANNELS 3 Zrotation Yrotation Xrotation
    JOINT LeftLeg
    {
      OFFSET 0 0 -42.358652
      CHANNELS 3 Zrotation Yrotation Xrotation
      JOINT LeftFoot
      {
        OFFSET 0 0 -39.357303
        CHANNELS 3 Zrotation Yrotation Xrotation
      }
    }
  }
  JOINT RightThigh
  {
    OFFSET -8.409438 0 -5.917753
    CHANNELS 3 Zrotation Yrotation Xrotation
    JOINT RightLeg
    {
      OFFSET 0 0 -42.358652
      CHANNELS 3 Zrotation Yrotation Xrotation
      JOINT RightFoot
      {
        OFFSET 0 0 -39.357303
        CHANNELS 3 Zrotation Yrotation Xrotation
      }
    }
  }
  JOINT SpineLow
  {
    OFFSET 0 0 4.719101
    CHANNELS 3 Zrotation Yrotation Xrotation
    JOINT SpineMid
    {
      OFFSET 0 0 12.899191
      CHANNELS 3 Zrotation Yrotation Xrotation
      JOINT Chest
      {
        OFFSET 0 0 12.899191
        CHANNELS 3 Zrotation Yrotation Xrotation
        JOINT LeftShoulder
        {
          OFFSET 7.550562 1.41573 9.438202
          CHANNELS 3 Zrotation Yrotation Xrotation
          JOINT LeftArm
          {
            OFFSET 9.155056 0 4.247191
            CHANNELS 3 Zrotation Yrotation Xrotation
            JOINT LeftForearm
            {
              OFFSET 0 0 25.771955
              CHANNELS 3 Zrotation Yrotation Xrotation
              JOINT LeftHand
              {
                OFFSET 0 0 25.197169
                CHANNELS 3 Zrotation Yrotation Xrotation
              }
            }
          }
        }
        JOINT RightShoulder
        {
          OFFSET -7.550562 1.41573 9.438202
          CHANNELS 3 Zrotation Yrotation Xrotation
          JOINT RightArm
          {
            OFFSET -9.155056 0 4.247191
            CHANNELS 3 Zrotation Yrotation Xrotation
            JOINT RightForearm
            {
              OFFSET 0 0 -25.771955
              CHANNELS 3 Zrotation Yrotation Xrotation
              JOINT RightHand
              {
                OFFSET 0 0 -25.197169
                CHANNELS 3 Zrotation Yrotation Xrotation
              }
            }
          }
        }
        JOINT Neck
        {
          OFFSET 0 0 15.101124
          CHANNELS 3 Zrotation Yrotation Xrotation
          JOINT Head
          {
            OFFSET 0 0 11.325843
            CHANNELS 3 Zrotation Yrotation Xrotation
            End Site
            {
              OFFSET 0 0 14.157303
            }
          }
        }
      }
    }
  }
}
MOTION
Frames: 17
Frame Time: 0.0
0.0  93.25843  0.0  8.869736  -0.488983  -113.735164  37.026089  -12.598615  -83.375469  9.641008  32.568526  99.034537  -3.583896  -0.605156  -1.356733  -10.991089  1.534615  8.972381  4.306833  11.505168  18.602285  5.040851  3.754276  2.921566  0.771853  0.181563  3.704282  2.131883  0.376871  10.129996  2.131883  0.376871  10.129996  -2.757119  27.825482  14.031302  178.728121  17.875647  -163.499836  -8.578699  -26.763  60.939856  76.96755  -15.895407  9.816655  4.199307  -3.46627  25.550246  87.959022  44.553868  33.628446  -28.210821  15.448455  -46.396922  76.814949  -16.423256  -1.602846  -0.531337  4.778876  -0.552979  -0.393939  3.584644  -0.410331  
0.0  93.25843  0.0  7.458927  0.108781  -112.167696  35.777286  -13.208849  -79.487095  9.755615  31.532614  99.167827  -3.873477  -0.563187  -1.382257  -10.695375  -0.208609  7.782522  3.723514  11.089694  17.929605  4.485251  3.709604  2.878206  0.806718  0.038809  3.532873  2.205338  -0.011848  9.656815  2.205338  -0.011848  9.656815  -2.971869  27.431607  13.655282  178.540837  18.274033  -163.507826  -8.398752  -27.538671  61.323666  78.337127  -14.616896  8.950078  3.787008  -3.241148  25.287422  88.889869  44.74371  33.815546  -29.000112  16.318955  -45.744068  74.892593  -17.427553  0.447024  -0.941081  4.602138  -0.677552  -0.70032  3.452661  -0.500792  
0.0  93.25843  0.0  6.029789  0.720939  -110.655001  34.646707  -14.07218  -75.507037  9.859023  30.550227  99.146653  -4.114484  -0.540227  -1.378577  -10.140012  -1.938142  6.687919  2.989048  10.546994  17.066028  3.983831  3.629797  2.963324  0.855061  -0.110135  3.322505  2.317074  -0.41765  9.076645  2.317073  -0.41765  9.076645  -3.261727  26.967026  13.268834  178.305896  18.852454  -163.578975  -8.063587  -28.488147  61.751369  79.573469  -13.273349  7.632637  3.427119  -3.007832  25.351632  89.472923  45.118661  33.792063  -29.921656  16.965454  -45.338558  73.507133  -18.388585  1.871618  -1.406583  4.40839  -0.721009  -1.049208  3.307977  -0.530329  
0.0  93.25843  0.0  4.536296  1.4261  -108.88639  33.561892  -15.09579  -71.803023  10.044132  29.707787  98.981282  -4.224733  -0.518028  -1.369182  -9.583267  -3.609989  5.246031  1.99869  10.038127  15.992896  3.45889  3.55012  3.079519  0.937406  -0.256206  3.076925  2.525096  -0.818009  8.399473  2.525096  -0.818009  8.399472  -3.888637  26.462457  12.775914  177.181133  20.442636  -163.382917  -8.513041  -28.998083  61.73785  80.648927  -11.89655  5.926736  2.814118  -2.891163  25.247022  89.874281  45.374682  33.612465  -31.194839  17.221316  -45.25994  73.079764  -18.837447  2.609097  -1.873541  4.174403  -0.735174  -1.399506  3.133094  -0.538325  
0.0  93.25843  0.0  3.087411  2.189643  -106.98781  32.375988  -16.198718  -68.259129  10.28287  28.799734  98.649787  -4.266908  -0.55534  -1.404088  -8.924504  -5.30563  3.690165  1.233462  9.503096  15.043808  2.972714  3.425443  3.23354  0.996623  -0.394469  2.794983  2.674704  -1.191445  7.62281  2.674703  -1.191445  7.62281  -4.373012  25.992016  12.257889  177.23707  21.600778  -163.163553  -8.290914  -29.378608  62.52288  81.61924  -10.555461  4.133335  2.232522  -2.853814  25.035191  89.579084  45.701021  33.114512  -32.121333  17.31851  -45.64098  73.124387  -19.009457  3.044252  -2.43215  3.947582  -0.779908  -1.818349  2.963849  -0.568978  
0.0  93.25843  0.0  1.795227  2.971496  -105.117645  31.043251  -17.166791  -64.626403  10.293415  27.690049  97.979947  -4.336301  -0.605615  -1.428515  -8.347865  -6.798047  2.063826  0.531122  9.060207  14.083262  2.120712  3.309509  3.211846  1.017753  -0.511065  2.511231  2.725873  -1.500534  6.842369  2.725873  -1.500534  6.842368  -4.584022  25.509252  11.597367  175.981802  23.329171  -162.762015  -9.305587  -29.234179  62.714131  82.486682  -9.527693  2.731412  1.926918  -2.883685  24.696521  88.922294  46.036587  32.609227  -32.636754  17.714324  -46.226598  73.01345  -19.171787  3.378658  -2.845593  3.768916  -0.772621  -2.128658  2.830361  -0.5617  
0.0  93.25843  0.0  0.704148  3.863662  -103.357919  29.580237  -17.870777  -60.73116  9.938917  26.577152  96.887719  -4.363507  -0.68087  -1.410717  -7.90439  -8.040792  0.467617  0.131931  8.633914  13.296353  1.611568  3.228297  3.369021  0.996337  -0.599254  2.230419  2.666038  -1.727923  6.072014  2.666038  -1.727923  6.072015  -4.498516  25.036356  11.120325  176.001856  24.423786  -162.180877  -9.402851  -29.117857  63.623413  83.236872  -8.834358  1.980138  1.741833  -2.99999  24.232424  87.907522  46.458097  32.105845  -32.580581  18.305823  -46.91829  72.547517  -19.208224  3.484927  -3.193982  3.595243  -0.698148  -2.390592  2.700171  -0.504644  
0.0  93.25843  0.0  -0.110527  4.775719  -101.788374  28.150135  -18.536054  -56.565445  9.473106  25.71612  95.512107  -4.201071  -0.783097  -1.360089  -7.497961  -8.981043  -1.044425  -0.434805  8.281928  12.396824  1.41883  3.098627  3.688271  0.969617  -0.656296  1.957428  2.595885  -1.870691  5.324434  2.595885  -1.870691  5.324435  -4.310503  24.550897  10.822138  175.931713  25.488065  -161.47681  -9.333417  -29.045093  64.553272  83.771672  -8.21513  1.751809  1.4728  -3.133715  23.723904  87.040471  46.830181  31.810013  -32.553462  18.608472  -47.789798  72.218863  -19.113196  3.376819  -3.528633  3.432721  -0.535592  -2.642674  2.577736  -0.381748  
0.0  93.25843  0.0  -0.642261  5.564162  -100.532273  26.895902  -19.325802  -52.008571  8.908787  25.175986  93.831666  -3.755955  -0.891422  -1.194692  -6.83607  -9.652304  -2.280229  -0.829531  8.057672  11.76422  0.90499  2.988362  3.817787  0.982864  -0.695839  1.712053  2.636477  -1.970117  4.651819  2.636477  -1.970117  4.651819  -4.197798  24.017771  10.618412  175.628104  26.443867  -160.860754  -8.960357  -29.166018  65.516455  83.958773  -7.636697  1.790582  0.930904  -3.257437  23.213547  86.717081  47.024437  31.973542  -33.024584  18.462173  -48.951432  72.506039  -19.062274  3.125908  -3.969693  3.320218  -0.336301  -2.974608  2.492473  -0.230578  
0.0  93.25843  0.0  -1.005249  6.260521  -99.524057  25.551714  -20.42017  -47.183003  8.537498  24.844763  91.968065  -3.035793  -1.042677  -0.94593  -6.106437  -10.126117  -3.306557  -1.646834  7.974235  10.999016  0.893364  2.89401  4.103816  0.981111  -0.729798  1.490602  2.636397  -2.054048  4.045226  2.636397  -2.054048  4.045226  -4.08186  23.517204  10.511983  175.265167  27.315491  -160.262269  -8.397357  -29.45787  66.619482  83.890998  -7.282442  1.950653  0.455961  -3.324613  22.739463  86.784489  47.116776  32.457634  -33.878338  18.114788  -50.400886  73.224345  -19.007797  2.471393  -4.260436  3.289232  -0.128841  -3.193754  2.467964  -0.073656  
0.0  93.25843  0.0  -1.345064  6.870121  -98.644364  23.715848  -21.908035  -42.153862  8.607526  24.33333  89.936292  -2.128731  -1.205055  -0.679358  -5.289071  -10.544683  -4.130534  -2.405282  7.995558  10.363018  0.522538  2.771898  4.18522  0.966156  -0.772718  1.284815  2.599832  -2.162407  3.481536  2.599832  -2.162407  3.481536  -3.986884  23.109178  10.468138  174.704302  28.204665  -159.764122  -7.917557  -29.892371  67.981257  83.611383  -7.342309  2.221788  0.157989  -3.309296  22.235339  86.93264  47.151764  33.004883  -34.971474  17.743389  -52.060065  74.17166  -18.801564  1.285376  -4.468408  3.327027  8.99E-4  -3.350368  2.495421  0.025026  
0.0  93.25843  0.0  -1.743826  7.416042  -97.878341  21.354218  -23.623847  -36.900953  8.935161  23.29013  87.622807  -1.207498  -1.331337  -0.400085  -4.888757  -10.942429  -4.894113  -2.911926  8.064597  9.882585  0.310482  2.592736  4.253589  0.945837  -0.827205  1.10671  2.547815  -2.303432  2.993305  2.547815  -2.303432  2.993305  -4.089009  22.714583  10.241531  173.781072  29.583128  -159.391896  -7.713294  -30.054113  69.306275  83.229108  -7.672361  2.692315  0.147386  -3.23222  21.720843  86.782563  47.333923  33.359802  -36.143556  17.356026  -53.898428  75.262344  -18.322182  -0.21943  -4.593693  3.397269  0.048194  -3.444527  2.54776  0.061702  
0.0  93.25843  0.0  -2.181577  7.922661  -97.11736  18.48567  -25.252975  -31.485551  9.507759  21.383702  85.031157  -0.36393  -1.431141  -0.127943  -4.805367  -11.367137  -5.632322  -3.080556  8.179256  9.579505  0.168731  2.449654  4.28701  0.913773  -0.889077  0.944574  2.463586  -2.465077  2.54896  2.463586  -2.465077  2.54896  -4.330727  22.280613  9.892885  172.65023  30.409571  -159.248691  -7.540362  -30.804917  71.027194  82.728009  -8.106393  3.328229  0.340298  -3.147  21.265795  86.527358  47.825716  33.617166  -37.330295  16.890234  -55.806813  76.469634  -17.65429  -1.882818  -4.647621  3.502435  0.02728  -3.484786  2.626799  0.047123  
0.0  93.25843  0.0  -2.602435  8.465793  -96.403435  14.979031  -26.351293  -25.903877  10.323867  18.369858  82.241324  0.289743  -1.443337  0.085245  -5.304519  -11.773776  -6.384728  -2.696693  8.319127  9.537005  -0.102196  2.406701  4.223007  0.866766  -0.973294  0.787961  2.338392  -2.687936  2.119674  2.338392  -2.687936  2.119674  -4.688765  22.017059  9.414058  170.918331  31.60339  -159.199229  -7.657206  -31.439715  72.44982  82.07113  -8.543127  4.099973  0.521175  -2.945609  20.906555  86.445776  48.583717  33.919443  -38.469973  16.195844  -57.744111  77.541706  -16.895842  -3.652669  -4.664376  3.72012  0.036588  -3.497274  2.790003  0.055865  
0.0  93.25843  0.0  -2.995271  9.064965  -95.734501  11.206648  -26.686588  -20.369697  11.263393  14.527591  79.275705  0.682075  -1.376556  0.220927  -6.165871  -12.228774  -7.110358  -1.848049  8.594157  9.708981  -0.333934  2.387454  4.252329  0.796082  -1.035867  0.637951  2.149727  -2.851871  1.710424  2.149727  -2.851871  1.710424  -5.019988  21.627438  8.815757  169.102929  32.399002  -159.411055  -7.70719  -32.26829  74.11105  81.268332  -9.04893  4.925517  0.678969  -2.953805  20.570437  86.762515  49.603543  34.434158  -39.585287  15.188583  -59.529188  78.39114  -16.004413  -5.324759  -4.636339  3.86054  0.091263  -3.476514  2.89491  0.097755  
0.0  93.25843  0.0  -3.402233  9.789331  -95.049908  7.831465  -26.205031  -15.233745  11.964146  10.328115  76.086247  0.842926  -1.191067  0.218477  -6.921424  -12.797017  -7.977574  -1.324689  9.10127  9.920927  -0.59177  2.365025  4.302546  0.703974  -1.113813  0.49582  1.902552  -3.058494  1.323574  1.902553  -3.058494  1.323574  -5.326716  21.357884  8.09075  166.757382  33.304082  -159.676345  -7.952614  -32.924367  75.531222  80.320344  -9.595682  5.724689  0.707846  -2.999213  20.143651  88.181627  50.627683  35.181579  -40.895061  14.205972  -60.686575  78.729482  -15.079731  -6.593866  -4.632803  4.014036  0.120343  -3.473971  3.009819  0.120702  
0.0  93.25843  0.0  -3.855688  10.586653  -94.432493  5.417007  -25.429501  -10.84072  12.207393  6.693128  72.797934  0.864595  -0.887621  0.077014  -7.169327  -13.47826  -8.948909  -1.008149  9.731108  10.450528  -0.974226  2.284933  4.319011  0.568452  -1.206603  0.356527  1.537151  -3.306225  0.946818  1.537151  -3.306225  0.946818  -5.606138  21.134669  7.490674  164.557671  34.189119  -159.784384  -8.320212  -33.259356  76.978226  79.21793  -10.173619  6.47347  0.849966  -3.164431  19.713351  89.469444  52.042638  36.313301  -41.797825  12.695941  -62.030913  78.576486  -14.223509  -7.536603  -4.556548  4.163043  0.172607  -3.417083  3.121202  0.160497  
